<svg width="149" height="64" viewBox="0 0 149 64" fill="none" xmlns="http://www.w3.org/2000/svg">
<path d="M7.40694 53.9496H8.36257V54.0972C8.36257 54.5633 8.40126 54.907 8.47775 55.1284C8.55423 55.3489 8.68111 55.5054 8.85748 55.5963C8.99605 55.6665 9.20842 55.716 9.49636 55.7466C9.78431 55.7772 10.3773 55.7916 11.2753 55.7916C11.7631 55.7916 12.141 55.7628 12.41 55.7052C12.6791 55.6476 12.878 55.554 13.0084 55.4235C13.0813 55.3534 13.1353 55.2346 13.1695 55.0663C13.2037 54.898 13.2217 54.6704 13.2217 54.3824C13.2217 53.8002 13.1578 53.4349 13.0291 53.2855C12.9005 53.1361 12.6467 53.048 12.2661 53.0201L9.62324 52.8311C8.83228 52.7753 8.28518 52.5944 7.98193 52.2894C7.67869 51.9844 7.52751 51.4705 7.52751 50.7489C7.52751 50.2927 7.57701 49.9264 7.67689 49.6493C7.77677 49.3721 7.93784 49.1427 8.161 48.96C8.33377 48.8196 8.57583 48.7206 8.88627 48.663C9.19672 48.6055 9.74562 48.5767 10.533 48.5767H10.838C11.7172 48.5767 12.3363 48.6154 12.6944 48.6927C13.0534 48.7701 13.354 48.9033 13.5951 49.0923C13.7598 49.2182 13.8822 49.3982 13.9605 49.6313C14.0388 49.8643 14.0784 50.155 14.0784 50.5014C14.0784 50.6031 14.0775 50.6814 14.0757 50.7354C14.0739 50.7894 14.0712 50.838 14.0667 50.8802H13.111V50.6859C13.111 50.3988 13.093 50.1784 13.0561 50.0263C13.0192 49.8742 12.9607 49.7608 12.8807 49.6871C12.7619 49.5782 12.5495 49.5026 12.2445 49.4585C11.9394 49.4144 11.3608 49.3928 10.5087 49.3928C9.65654 49.3928 9.07074 49.4837 8.84488 49.6664C8.61812 49.849 8.50474 50.2135 8.50474 50.7606C8.50474 51.2096 8.57853 51.5191 8.7261 51.6892C8.87367 51.8593 9.15892 51.9601 9.58095 51.9916L12.276 52.1967C12.9823 52.2525 13.4773 52.4307 13.7616 52.7303C14.046 53.03 14.1881 53.5303 14.1881 54.2322C14.1881 54.7442 14.1512 55.1284 14.0784 55.3866C14.0055 55.644 13.8849 55.8591 13.7157 56.0309C13.5088 56.2451 13.2289 56.3945 12.878 56.4809C12.527 56.5663 11.8863 56.6095 10.9577 56.6095H10.5312C9.74022 56.6095 9.18142 56.5726 8.85298 56.4989C8.52454 56.4251 8.25099 56.2973 8.03232 56.1146C7.81726 55.9463 7.65889 55.7187 7.55721 55.4307C7.45553 55.1437 7.40424 54.7784 7.40424 54.3365V53.9523L7.40694 53.9496Z" fill="white"/>
<path d="M16.4854 51.2562C16.4854 50.2573 16.7122 49.56 17.1648 49.1658C17.6174 48.7717 18.4219 48.5737 19.5773 48.5737H20.6598C21.8269 48.5737 22.634 48.7681 23.0813 49.1577C23.5285 49.5465 23.7516 50.2465 23.7516 51.2562V53.9116C23.7516 54.914 23.524 55.6123 23.0696 56.0046C22.6151 56.3969 21.8116 56.594 20.6598 56.594H19.5773C18.4219 56.594 17.6174 56.3978 17.1648 56.0046C16.7122 55.6123 16.4854 54.914 16.4854 53.9116V51.2562ZM20.3772 49.389H19.8472C19.2443 49.389 18.8187 49.4187 18.5695 49.4781C18.3202 49.5375 18.1051 49.6373 17.9243 49.7777C17.7551 49.9109 17.6363 50.0909 17.567 50.3167C17.4977 50.5426 17.4636 50.9313 17.4636 51.482V53.701C17.4636 54.2481 17.4977 54.6324 17.567 54.8555C17.6363 55.0787 17.7551 55.2559 17.9243 55.3891C18.1042 55.5295 18.3193 55.6294 18.5695 55.6888C18.8187 55.7482 19.2452 55.7778 19.8472 55.7778H20.3772C20.9801 55.7778 21.4076 55.7482 21.6613 55.6888C21.9151 55.6294 22.1319 55.5295 22.3119 55.3891C22.4766 55.2595 22.5926 55.0859 22.6601 54.8681C22.7276 54.6503 22.7609 54.2616 22.7609 53.701V51.4712C22.7609 50.9205 22.7267 50.5327 22.6574 50.3059C22.5881 50.0801 22.4694 49.9001 22.3002 49.7669C22.1238 49.6301 21.9106 49.533 21.6613 49.4754C21.4121 49.4178 20.9837 49.389 20.3772 49.389Z" fill="white"/>
<path d="M26.2496 56.4994V48.6689H27.1827V55.6796H32.0419V56.5003H26.2496V56.4994Z" fill="white"/>
<path d="M33.9189 48.6689H34.8746V53.807C34.8746 54.3118 34.9043 54.6646 34.9636 54.8643C35.023 55.0641 35.1256 55.2252 35.2714 55.3485C35.4253 55.4744 35.6079 55.5635 35.8212 55.6139C36.0345 55.6643 36.4016 55.6904 36.9235 55.6904H37.8215C38.347 55.6904 38.7178 55.6652 38.9328 55.6139C39.1479 55.5635 39.3324 55.4744 39.4853 55.3485C39.6275 55.2297 39.7274 55.0695 39.785 54.8697C39.8426 54.67 39.8714 54.3154 39.8714 53.807V48.6689H40.827V53.9123C40.827 54.9111 40.611 55.6085 40.1791 56.0026C39.7472 56.3968 38.9841 56.5947 37.8908 56.5947H36.8542C35.76 56.5947 34.9978 56.3977 34.5659 56.0026C34.134 55.6085 33.918 54.9111 33.918 53.9123V48.6689H33.9189Z" fill="white"/>
<path d="M42.3585 49.4995V48.6689H48.778V49.4995H46.0371V56.4994H45.0869V49.4995H42.3576H42.3585Z" fill="white"/>
<path d="M50.3896 56.4994V48.6689H51.3452V56.4994H50.3896Z" fill="white"/>
<path d="M53.8549 51.2562C53.8549 50.2573 54.0816 49.56 54.5343 49.1658C54.9869 48.7717 55.7913 48.5737 56.9467 48.5737H58.0292C59.1963 48.5737 60.0035 48.7681 60.4507 49.1577C60.8979 49.5465 61.1211 50.2465 61.1211 51.2562V53.9116C61.1211 54.914 60.8934 55.6123 60.439 56.0046C59.9846 56.3969 59.181 56.594 58.0292 56.594H56.9467C55.7913 56.594 54.9869 56.3978 54.5343 56.0046C54.0816 55.6123 53.8549 54.914 53.8549 53.9116V51.2562ZM57.7467 49.389H57.2167C56.6138 49.389 56.1882 49.4187 55.9389 49.4781C55.6897 49.5375 55.4746 49.6373 55.2937 49.7777C55.1246 49.9109 55.0058 50.0909 54.9365 50.3167C54.8672 50.5426 54.833 50.9313 54.833 51.482V53.701C54.833 54.2481 54.8672 54.6324 54.9365 54.8555C55.0058 55.0787 55.1246 55.2559 55.2937 55.3891C55.4737 55.5295 55.6888 55.6294 55.9389 55.6888C56.1882 55.7482 56.6147 55.7778 57.2167 55.7778H57.7467C58.3496 55.7778 58.777 55.7482 59.0308 55.6888C59.2845 55.6294 59.5014 55.5295 59.6814 55.3891C59.846 55.2595 59.9621 55.0859 60.0296 54.8681C60.0971 54.6503 60.1304 54.2616 60.1304 53.701V51.4712C60.1304 50.9205 60.0962 50.5327 60.0269 50.3059C59.9576 50.0801 59.8388 49.9001 59.6697 49.7669C59.4933 49.6301 59.28 49.533 59.0308 49.4754C58.7815 49.4178 58.3532 49.389 57.7467 49.389Z" fill="white"/>
<path d="M63.619 56.4994V48.6689H65.0813L69.7281 55.658V48.6689H70.672V56.4994H69.2098L64.563 49.4995V56.4994H63.619Z" fill="white"/>
<path d="M73.2284 53.9496H74.1841V54.0972C74.1841 54.5633 74.2228 54.907 74.2992 55.1284C74.3757 55.3489 74.5026 55.5054 74.679 55.5963C74.8176 55.6665 75.0299 55.716 75.3179 55.7466C75.6058 55.7772 76.1988 55.7916 77.0969 55.7916C77.5846 55.7916 77.9625 55.7628 78.2315 55.7052C78.5006 55.6476 78.6995 55.554 78.8299 55.4235C78.9028 55.3534 78.9568 55.2346 78.991 55.0663C79.0252 54.898 79.0432 54.6704 79.0432 54.3824C79.0432 53.8002 78.9793 53.4349 78.8506 53.2855C78.722 53.1361 78.4682 53.048 78.0876 53.0201L75.4447 52.8311C74.6538 52.7753 74.1067 52.5944 73.8034 52.2894C73.5002 51.9844 73.349 51.4705 73.349 50.7489C73.349 50.2927 73.3985 49.9264 73.4984 49.6493C73.5983 49.3721 73.7593 49.1427 73.9825 48.96C74.1553 48.8196 74.3973 48.7206 74.7078 48.663C75.0182 48.6055 75.5671 48.5767 76.3545 48.5767H76.6595C77.5387 48.5767 78.1578 48.6154 78.5159 48.6927C78.8749 48.7701 79.1755 48.9033 79.4166 49.0923C79.5813 49.2182 79.7037 49.3982 79.782 49.6313C79.8603 49.8643 79.8999 50.155 79.8999 50.5014C79.8999 50.6031 79.899 50.6814 79.8972 50.7354C79.8954 50.7894 79.8927 50.838 79.8882 50.8802H78.9325V50.6859C78.9325 50.3988 78.9145 50.1784 78.8776 50.0263C78.8407 49.8742 78.7822 49.7608 78.7022 49.6871C78.5834 49.5782 78.371 49.5026 78.066 49.4585C77.7609 49.4144 77.1823 49.3928 76.3302 49.3928C75.478 49.3928 74.8922 49.4837 74.6664 49.6664C74.4396 49.849 74.3262 50.2135 74.3262 50.7606C74.3262 51.2096 74.4 51.5191 74.5476 51.6892C74.6952 51.8593 74.9804 51.9601 75.4025 51.9916L78.0975 52.1967C78.8038 52.2525 79.2988 52.4307 79.5831 52.7303C79.8675 53.03 80.0096 53.5303 80.0096 54.2322C80.0096 54.7442 79.9727 55.1284 79.8999 55.3866C79.827 55.644 79.7064 55.8591 79.5372 56.0309C79.3303 56.2451 79.0504 56.3945 78.6995 56.4809C78.3485 56.5663 77.7078 56.6095 76.7792 56.6095H76.3527C75.5617 56.6095 75.0029 56.5726 74.6745 56.4989C74.346 56.4251 74.0725 56.2973 73.8538 56.1146C73.6388 55.9463 73.4804 55.7187 73.3787 55.4307C73.277 55.1437 73.2257 54.7784 73.2257 54.3365V53.9523L73.2284 53.9496Z" fill="white"/>
<path d="M87.2695 56.4994V48.6689H90.8797C91.8434 48.6689 92.5066 48.7994 92.8692 49.0604C93.2319 49.3213 93.4136 49.7874 93.4136 50.4569V51.6402C93.4136 52.3277 93.2346 52.8028 92.8755 53.0656C92.5165 53.3283 91.8515 53.4597 90.8806 53.4597H88.2153V56.4994H87.2713H87.2695ZM92.4229 51.6402V50.4884C92.4229 50.1096 92.3257 49.8504 92.1323 49.7101C91.9388 49.5697 91.5168 49.4995 90.8689 49.4995H88.2144V52.6336H90.8689C91.506 52.6336 91.9244 52.5617 92.1242 52.4177C92.3239 52.2737 92.4238 52.0145 92.4238 51.6393L92.4229 51.6402Z" fill="white"/>
<path d="M94.6734 48.6689H95.6867L98.4213 55.6895L101.168 48.6689H102.175L99.0377 56.4994H97.8112L94.6734 48.6689Z" fill="white"/>
<path d="M102.9 49.4995V48.6689H109.319V49.4995H106.578V56.4994H105.628V49.4995H102.899H102.9Z" fill="white"/>
<path d="M110.661 56.4994V55.3584H111.662V56.4994H110.661Z" fill="white"/>
<path d="M115.624 56.4994V48.6689H116.557V55.6796H121.416V56.5003H115.624V56.4994Z" fill="white"/>
<path d="M122.203 49.4995V48.6689H128.623V49.4995H125.882V56.4994H124.931V49.4995H122.202H122.203Z" fill="white"/>
<path d="M130.235 56.4994V48.6689H134.374C135.449 48.6689 136.204 48.8633 136.637 49.2529C137.071 49.6426 137.288 50.3202 137.288 51.2884V53.8709C137.288 54.8418 137.07 55.523 136.635 55.9145C136.199 56.305 135.446 56.5012 134.375 56.5012H130.236L130.235 56.4994ZM131.179 55.7264H134.219C135.044 55.7264 135.596 55.5986 135.877 55.3422C136.157 55.0866 136.297 54.5989 136.297 53.8799V51.3505C136.297 50.5928 136.158 50.0862 135.88 49.8306C135.602 49.5751 135.047 49.4464 134.219 49.4464H131.179V55.7255V55.7264Z" fill="white"/>
<path d="M139.515 56.4994V55.3584H140.517V56.4994H139.515Z" fill="white"/>
<path d="M71.4648 42.8579V13.3989H83.4443C85.1639 13.3989 86.6693 13.7562 87.9597 14.4724C89.2501 15.1878 90.2633 16.1704 91.0003 17.4185C91.7372 18.6675 92.1062 20.1054 92.1062 21.7323C92.1062 23.4996 91.7372 25.0717 91.0003 26.4457C90.2633 27.8207 89.2492 28.9014 87.9597 29.686C86.6693 30.4716 85.1639 30.8648 83.4443 30.8648H73.4003V42.8588H71.4657L71.4648 42.8579ZM73.3994 29.138H83.582C84.8724 29.138 86.008 28.8159 86.9915 28.1698C87.9741 27.5246 88.7426 26.6482 89.2951 25.5396C89.8485 24.4319 90.1247 23.1613 90.1247 21.7305C90.1247 19.8229 89.5182 18.2446 88.3044 16.9956C87.0905 15.7475 85.5167 15.123 83.582 15.123H73.3994V29.1371V29.138Z" fill="white"/>
<path d="M95.8369 42.8579V13.3989H97.6798V42.8579H95.8369Z" fill="white"/>
<path d="M111.041 43.279C108.276 43.279 106.134 42.5636 104.613 41.1329C103.092 39.7021 102.332 37.4993 102.332 34.5253V20.7632H104.221V34.2302C104.221 36.7839 104.858 38.6637 106.133 39.8695C107.407 41.0762 109.212 41.6791 111.546 41.6791C112.621 41.6791 113.62 41.4829 114.541 41.0897C115.462 40.6973 116.284 40.206 117.006 39.6166C117.727 39.0272 118.288 38.4108 118.687 37.7648C119.086 37.1196 119.287 36.5302 119.287 35.9975V20.7632H121.176V42.8579H119.379L119.287 38.7339C118.579 39.9964 117.482 41.0699 115.992 41.9535C114.502 42.8372 112.851 43.279 111.04 43.279H111.041Z" fill="white"/>
<path d="M133.156 43.279C131.129 43.279 129.286 42.9352 127.627 42.2478C125.969 41.5603 124.679 40.6272 123.757 39.4493L125.093 38.3974C125.984 39.4079 127.121 40.2213 128.503 40.8386C129.885 41.4559 131.481 41.7646 133.295 41.7646C135.475 41.7646 137.08 41.302 138.11 40.3761C139.138 39.4502 139.653 38.3848 139.653 37.1781C139.653 35.9714 139.084 35.0176 137.949 34.3166C136.904 33.5877 135.184 32.9695 132.788 32.4647C129.747 31.8195 127.581 30.9494 126.291 29.8552C125.739 29.3783 125.316 28.8599 125.024 28.2975C124.732 27.7369 124.587 27.1053 124.587 26.4034C124.587 24.6361 125.347 23.2126 126.868 22.1318C128.389 21.052 130.361 20.5112 132.789 20.5112C134.447 20.5112 136.014 20.8199 137.488 21.4372C138.962 22.0545 140.237 22.9381 141.312 24.0881L140.114 25.2669C139.1 24.2564 137.979 23.4645 136.751 22.8886C135.522 22.3136 134.217 22.0257 132.835 22.0257C130.807 22.0257 129.241 22.4252 128.135 23.2251C127.029 24.0251 126.476 25.0554 126.476 26.3188C126.507 26.7678 126.622 27.2096 126.822 27.6443C127.022 28.0798 127.336 28.4514 127.767 28.7592C128.289 29.1803 129.019 29.5591 129.955 29.8957C130.892 30.2322 132.005 30.5417 133.295 30.8216C136.121 31.411 138.179 32.1831 139.469 33.136C140.789 34.1465 141.451 35.4792 141.451 37.134C141.451 38.9858 140.698 40.4733 139.193 41.5945C137.688 42.7166 135.676 43.2781 133.158 43.2781L133.156 43.279Z" fill="white"/>
<path d="M49.3656 37.0637C44.4894 36.9206 40.6362 32.8345 40.7802 27.9582C40.9215 23.0793 45.0077 19.2262 49.8839 19.3701C51.1041 19.4043 52.2577 19.686 53.297 20.1638L53.3258 20.1359L56.684 15.293C54.7088 14.2096 52.4565 13.5653 50.0558 13.4942C41.9365 13.2566 35.1427 19.6671 34.9043 27.7854C34.6667 35.9011 41.0745 42.7003 49.1928 42.937C51.9004 43.017 54.4632 42.3566 56.684 41.1382L53.306 36.2646C52.1083 36.8153 50.7711 37.1033 49.3647 37.0628" fill="white"/>
<path d="M25.3922 13.3989L25.3885 13.4082L25.3848 13.3989H25.3922Z" fill="white"/>
<path d="M17.8667 32.6681L17.8649 32.6762L19.9606 32.6681L24.1719 32.7392L26.5303 38.7915L17.0343 38.7312L15.4965 38.7366V38.7375L13.8876 42.8588H7.39073L8.99065 38.7609L11.3581 32.6987L18.8916 13.4079L18.8952 13.3989H25.3848L25.3884 13.4079L36.8902 42.8588H30.3933L22.14 21.726L17.8667 32.6681Z" fill="white"/>
<path d="M18.8954 13.3989L18.8917 13.4082L18.888 13.3989H18.8954Z" fill="white"/>
<path d="M68.4008 42.8606H61.0446L50.8926 28.2175L61.167 13.3989H66.7946V14.2646H67.9239L58.2515 28.2175L68.4008 42.8606Z" fill="#D21E3F"/>
<path d="M68.8057 7.39062H67.5981V8.59821H68.8057V7.39062Z" fill="white"/>
<path d="M69.2457 11.6885H67.536V13.3982H69.2457V11.6885Z" fill="white"/>
<path d="M67.2202 8.9751H64.8842V11.3111H67.2202V8.9751Z" fill="white"/>
<path d="M71.4324 9.10596H69.7137V10.8247H71.4324V9.10596Z" fill="white"/>
</svg>
