<svg width="149" height="64" viewBox="0 0 149 64" fill="none" xmlns="http://www.w3.org/2000/svg">
<path d="M7.40694 53.9494H8.36257V54.0969C8.36257 54.5631 8.40126 54.9068 8.47775 55.1282C8.55423 55.3486 8.68111 55.5052 8.85748 55.5961C8.99605 55.6663 9.20842 55.7157 9.49636 55.7463C9.78431 55.7769 10.3773 55.7913 11.2753 55.7913C11.7631 55.7913 12.141 55.7625 12.41 55.7049C12.6791 55.6474 12.878 55.5538 13.0084 55.4233C13.0813 55.3531 13.1353 55.2343 13.1695 55.0661C13.2037 54.8978 13.2217 54.6701 13.2217 54.3822C13.2217 53.8 13.1578 53.4347 13.0291 53.2853C12.9005 53.1359 12.6467 53.0477 12.2661 53.0198L9.62324 52.8309C8.83228 52.7751 8.28518 52.5942 7.98193 52.2892C7.67869 51.9841 7.52751 51.4703 7.52751 50.7486C7.52751 50.2924 7.57701 49.9262 7.67689 49.649C7.77677 49.3719 7.93784 49.1424 8.161 48.9597C8.33377 48.8194 8.57583 48.7204 8.88627 48.6628C9.19672 48.6052 9.74562 48.5764 10.533 48.5764H10.838C11.7172 48.5764 12.3363 48.6151 12.6944 48.6925C13.0534 48.7699 13.354 48.9031 13.5951 49.092C13.7598 49.218 13.8822 49.398 13.9605 49.631C14.0388 49.8641 14.0784 50.1547 14.0784 50.5012C14.0784 50.6029 14.0775 50.6811 14.0757 50.7351C14.0739 50.7891 14.0712 50.8377 14.0667 50.88H13.111V50.6856C13.111 50.3986 13.093 50.1781 13.0561 50.0261C13.0192 49.874 12.9607 49.7606 12.8807 49.6868C12.7619 49.5779 12.5495 49.5024 12.2445 49.4583C11.9394 49.4142 11.3608 49.3926 10.5087 49.3926C9.65654 49.3926 9.07074 49.4835 8.84488 49.6661C8.61812 49.8488 8.50474 50.2132 8.50474 50.7603C8.50474 51.2093 8.57853 51.5189 8.7261 51.689C8.87367 51.859 9.15892 51.9598 9.58095 51.9913L12.276 52.1965C12.9823 52.2523 13.4773 52.4304 13.7616 52.7301C14.046 53.0297 14.1881 53.53 14.1881 54.2319C14.1881 54.7439 14.1512 55.1282 14.0784 55.3864C14.0055 55.6438 13.8849 55.8588 13.7157 56.0307C13.5088 56.2449 13.2289 56.3942 12.878 56.4806C12.527 56.5661 11.8863 56.6093 10.9577 56.6093H10.5312C9.74022 56.6093 9.18142 56.5724 8.85298 56.4986C8.52454 56.4248 8.25099 56.297 8.03232 56.1144C7.81726 55.9461 7.65889 55.7184 7.55721 55.4305C7.45553 55.1434 7.40424 54.7781 7.40424 54.3363V53.9521L7.40694 53.9494Z" fill="#0B1336"/>
<path d="M16.4854 51.2561C16.4854 50.2573 16.7122 49.5599 17.1648 49.1658C17.6174 48.7717 18.4219 48.5737 19.5773 48.5737H20.6598C21.8269 48.5737 22.634 48.7681 23.0813 49.1577C23.5285 49.5464 23.7516 50.2465 23.7516 51.2561V53.9116C23.7516 54.914 23.524 55.6123 23.0696 56.0046C22.6151 56.3969 21.8116 56.594 20.6598 56.594H19.5773C18.4219 56.594 17.6174 56.3978 17.1648 56.0046C16.7122 55.6123 16.4854 54.914 16.4854 53.9116V51.2561ZM20.3772 49.389H19.8472C19.2443 49.389 18.8187 49.4187 18.5695 49.4781C18.3202 49.5374 18.1051 49.6373 17.9243 49.7777C17.7551 49.9109 17.6363 50.0908 17.567 50.3167C17.4977 50.5426 17.4636 50.9313 17.4636 51.482V53.701C17.4636 54.2481 17.4977 54.6323 17.567 54.8555C17.6363 55.0787 17.7551 55.2559 17.9243 55.3891C18.1042 55.5295 18.3193 55.6294 18.5695 55.6887C18.8187 55.7481 19.2452 55.7778 19.8472 55.7778H20.3772C20.9801 55.7778 21.4076 55.7481 21.6613 55.6887C21.9151 55.6294 22.1319 55.5295 22.3119 55.3891C22.4766 55.2595 22.5926 55.0859 22.6601 54.8681C22.7276 54.6503 22.7609 54.2616 22.7609 53.701V51.4712C22.7609 50.9205 22.7267 50.5327 22.6574 50.3059C22.5881 50.08 22.4694 49.9001 22.3002 49.7669C22.1238 49.6301 21.9106 49.5329 21.6613 49.4754C21.4121 49.4178 20.9837 49.389 20.3772 49.389Z" fill="#0B1336"/>
<path d="M26.2496 56.4995V48.6691H27.1827V55.6798H32.0419V56.5004H26.2496V56.4995Z" fill="#0B1336"/>
<path d="M33.9189 48.6691H34.8746V53.8072C34.8746 54.312 34.9043 54.6647 34.9636 54.8645C35.023 55.0643 35.1256 55.2253 35.2714 55.3486C35.4253 55.4746 35.6079 55.5637 35.8212 55.6141C36.0345 55.6645 36.4016 55.6905 36.9235 55.6905H37.8215C38.347 55.6905 38.7178 55.6654 38.9328 55.6141C39.1479 55.5637 39.3324 55.4746 39.4853 55.3486C39.6275 55.2298 39.7274 55.0697 39.785 54.8699C39.8426 54.6701 39.8714 54.3156 39.8714 53.8072V48.6691H40.827V53.9125C40.827 54.9113 40.611 55.6087 40.1791 56.0028C39.7472 56.3969 38.9841 56.5949 37.8908 56.5949H36.8542C35.76 56.5949 34.9978 56.3978 34.5659 56.0028C34.134 55.6087 33.918 54.9113 33.918 53.9125V48.6691H33.9189Z" fill="#0B1336"/>
<path d="M42.3585 49.4996V48.6691H48.778V49.4996H46.0371V56.4995H45.0869V49.4996H42.3576H42.3585Z" fill="#0B1336"/>
<path d="M50.3896 56.4995V48.6691H51.3452V56.4995H50.3896Z" fill="#0B1336"/>
<path d="M53.8549 51.2561C53.8549 50.2573 54.0816 49.5599 54.5343 49.1658C54.9869 48.7717 55.7913 48.5737 56.9467 48.5737H58.0292C59.1963 48.5737 60.0035 48.7681 60.4507 49.1577C60.8979 49.5464 61.1211 50.2465 61.1211 51.2561V53.9116C61.1211 54.914 60.8934 55.6123 60.439 56.0046C59.9846 56.3969 59.181 56.594 58.0292 56.594H56.9467C55.7913 56.594 54.9869 56.3978 54.5343 56.0046C54.0816 55.6123 53.8549 54.914 53.8549 53.9116V51.2561ZM57.7467 49.389H57.2167C56.6138 49.389 56.1882 49.4187 55.9389 49.4781C55.6897 49.5374 55.4746 49.6373 55.2937 49.7777C55.1246 49.9109 55.0058 50.0908 54.9365 50.3167C54.8672 50.5426 54.833 50.9313 54.833 51.482V53.701C54.833 54.2481 54.8672 54.6323 54.9365 54.8555C55.0058 55.0787 55.1246 55.2559 55.2937 55.3891C55.4737 55.5295 55.6888 55.6294 55.9389 55.6887C56.1882 55.7481 56.6147 55.7778 57.2167 55.7778H57.7467C58.3496 55.7778 58.777 55.7481 59.0308 55.6887C59.2845 55.6294 59.5014 55.5295 59.6814 55.3891C59.846 55.2595 59.9621 55.0859 60.0296 54.8681C60.0971 54.6503 60.1304 54.2616 60.1304 53.701V51.4712C60.1304 50.9205 60.0962 50.5327 60.0269 50.3059C59.9576 50.08 59.8388 49.9001 59.6697 49.7669C59.4933 49.6301 59.28 49.5329 59.0308 49.4754C58.7815 49.4178 58.3532 49.389 57.7467 49.389Z" fill="#0B1336"/>
<path d="M63.619 56.4995V48.6691H65.0813L69.7281 55.6582V48.6691H70.672V56.4995H69.2098L64.563 49.4996V56.4995H63.619Z" fill="#0B1336"/>
<path d="M73.2284 53.9494H74.1841V54.0969C74.1841 54.5631 74.2228 54.9068 74.2992 55.1282C74.3757 55.3486 74.5026 55.5052 74.679 55.5961C74.8176 55.6663 75.0299 55.7157 75.3179 55.7463C75.6058 55.7769 76.1988 55.7913 77.0969 55.7913C77.5846 55.7913 77.9625 55.7625 78.2315 55.7049C78.5006 55.6474 78.6995 55.5538 78.8299 55.4233C78.9028 55.3531 78.9568 55.2343 78.991 55.0661C79.0252 54.8978 79.0432 54.6701 79.0432 54.3822C79.0432 53.8 78.9793 53.4347 78.8506 53.2853C78.722 53.1359 78.4682 53.0477 78.0876 53.0198L75.4447 52.8309C74.6538 52.7751 74.1067 52.5942 73.8034 52.2892C73.5002 51.9841 73.349 51.4703 73.349 50.7486C73.349 50.2924 73.3985 49.9262 73.4984 49.649C73.5983 49.3719 73.7593 49.1424 73.9825 48.9597C74.1553 48.8194 74.3973 48.7204 74.7078 48.6628C75.0182 48.6052 75.5671 48.5764 76.3545 48.5764H76.6595C77.5387 48.5764 78.1578 48.6151 78.5159 48.6925C78.8749 48.7699 79.1755 48.9031 79.4166 49.092C79.5813 49.218 79.7037 49.398 79.782 49.631C79.8603 49.8641 79.8999 50.1547 79.8999 50.5012C79.8999 50.6029 79.899 50.6811 79.8972 50.7351C79.8954 50.7891 79.8927 50.8377 79.8882 50.88H78.9325V50.6856C78.9325 50.3986 78.9145 50.1781 78.8776 50.0261C78.8407 49.874 78.7822 49.7606 78.7022 49.6868C78.5834 49.5779 78.371 49.5024 78.066 49.4583C77.7609 49.4142 77.1823 49.3926 76.3302 49.3926C75.478 49.3926 74.8922 49.4835 74.6664 49.6661C74.4396 49.8488 74.3262 50.2132 74.3262 50.7603C74.3262 51.2093 74.4 51.5189 74.5476 51.689C74.6952 51.859 74.9804 51.9598 75.4025 51.9913L78.0975 52.1965C78.8038 52.2523 79.2988 52.4304 79.5831 52.7301C79.8675 53.0297 80.0096 53.53 80.0096 54.2319C80.0096 54.7439 79.9727 55.1282 79.8999 55.3864C79.827 55.6438 79.7064 55.8588 79.5372 56.0307C79.3303 56.2449 79.0504 56.3942 78.6995 56.4806C78.3485 56.5661 77.7078 56.6093 76.7792 56.6093H76.3527C75.5617 56.6093 75.0029 56.5724 74.6745 56.4986C74.346 56.4248 74.0725 56.297 73.8538 56.1144C73.6388 55.9461 73.4804 55.7184 73.3787 55.4305C73.277 55.1434 73.2257 54.7781 73.2257 54.3363V53.9521L73.2284 53.9494Z" fill="#0B1336"/>
<path d="M87.2695 56.4995V48.6691H90.8797C91.8434 48.6691 92.5066 48.7996 92.8692 49.0605C93.2319 49.3215 93.4136 49.7876 93.4136 50.4571V51.6404C93.4136 52.3278 93.2346 52.803 92.8755 53.0657C92.5165 53.3285 91.8515 53.4598 90.8806 53.4598H88.2153V56.4995H87.2713H87.2695ZM92.4229 51.6404V50.4886C92.4229 50.1097 92.3257 49.8506 92.1323 49.7102C91.9388 49.5698 91.5168 49.4996 90.8689 49.4996H88.2144V52.6338H90.8689C91.506 52.6338 91.9244 52.5618 92.1242 52.4178C92.3239 52.2739 92.4238 52.0147 92.4238 51.6395L92.4229 51.6404Z" fill="#0B1336"/>
<path d="M94.6734 48.6691H95.6867L98.4213 55.6896L101.168 48.6691H102.175L99.0377 56.4995H97.8112L94.6734 48.6691Z" fill="#0B1336"/>
<path d="M102.9 49.4996V48.6691H109.319V49.4996H106.578V56.4995H105.628V49.4996H102.899H102.9Z" fill="#0B1336"/>
<path d="M110.661 56.4995V55.3585H111.662V56.4995H110.661Z" fill="#0B1336"/>
<path d="M115.624 56.4995V48.6691H116.557V55.6798H121.416V56.5004H115.624V56.4995Z" fill="#0B1336"/>
<path d="M122.203 49.4996V48.6691H128.623V49.4996H125.882V56.4995H124.931V49.4996H122.202H122.203Z" fill="#0B1336"/>
<path d="M130.235 56.4995V48.6691H134.374C135.449 48.6691 136.204 48.8635 136.637 49.2531C137.071 49.6427 137.288 50.3203 137.288 51.2885V53.8711C137.288 54.842 137.07 55.5232 136.635 55.9146C136.199 56.3051 135.446 56.5013 134.375 56.5013H130.236L130.235 56.4995ZM131.179 55.7265H134.219C135.044 55.7265 135.596 55.5988 135.877 55.3423C136.157 55.0868 136.297 54.599 136.297 53.8801V51.3506C136.297 50.593 136.158 50.0863 135.88 49.8308C135.602 49.5752 135.047 49.4466 134.219 49.4466H131.179V55.7256V55.7265Z" fill="#0B1336"/>
<path d="M139.515 56.4995V55.3585H140.517V56.4995H139.515Z" fill="#0B1336"/>
<path d="M71.4648 42.8579V13.399H83.4443C85.1639 13.399 86.6693 13.7562 87.9597 14.4725C89.2501 15.1878 90.2633 16.1705 91.0003 17.4186C91.7372 18.6675 92.1062 20.1055 92.1062 21.7324C92.1062 23.4997 91.7372 25.0717 91.0003 26.4457C90.2633 27.8207 89.2492 28.9014 87.9597 29.6861C86.6693 30.4716 85.1639 30.8649 83.4443 30.8649H73.4003V42.8588H71.4657L71.4648 42.8579ZM73.3994 29.1381H83.582C84.8724 29.1381 86.008 28.8159 86.9915 28.1698C87.9741 27.5247 88.7426 26.6482 89.2951 25.5396C89.8485 24.4319 90.1247 23.1613 90.1247 21.7306C90.1247 19.8229 89.5182 18.2446 88.3044 16.9956C87.0905 15.7475 85.5167 15.1231 83.582 15.1231H73.3994V29.1372V29.1381Z" fill="#0B1336"/>
<path d="M95.8369 42.8579V13.399H97.6798V42.8579H95.8369Z" fill="#0B1336"/>
<path d="M111.041 43.2791C108.276 43.2791 106.134 42.5637 104.613 41.1329C103.092 39.7022 102.332 37.4994 102.332 34.5254V20.7633H104.221V34.2303C104.221 36.784 104.858 38.6638 106.133 39.8696C107.407 41.0762 109.212 41.6791 111.546 41.6791C112.621 41.6791 113.62 41.483 114.541 41.0897C115.462 40.6974 116.284 40.2061 117.006 39.6167C117.727 39.0273 118.288 38.4109 118.687 37.7648C119.086 37.1196 119.287 36.5303 119.287 35.9975V20.7633H121.176V42.8579H119.379L119.287 38.734C118.579 39.9964 117.482 41.0699 115.992 41.9536C114.502 42.8372 112.851 43.2791 111.04 43.2791H111.041Z" fill="#0B1336"/>
<path d="M133.156 43.279C131.129 43.279 129.286 42.9353 127.627 42.2478C125.969 41.5604 124.679 40.6272 123.757 39.4493L125.093 38.3974C125.984 39.4079 127.121 40.2214 128.503 40.8387C129.885 41.456 131.481 41.7646 133.295 41.7646C135.475 41.7646 137.08 41.3021 138.11 40.3762C139.138 39.4502 139.653 38.3848 139.653 37.1781C139.653 35.9714 139.084 35.0176 137.949 34.3166C136.904 33.5878 135.184 32.9696 132.788 32.4648C129.747 31.8196 127.581 30.9494 126.291 29.8552C125.739 29.3783 125.316 28.86 125.024 28.2976C124.732 27.737 124.587 27.1053 124.587 26.4034C124.587 24.6362 125.347 23.2126 126.868 22.1319C128.389 21.0521 130.361 20.5113 132.789 20.5113C134.447 20.5113 136.014 20.8199 137.488 21.4372C138.962 22.0545 140.237 22.9382 141.312 24.0882L140.114 25.267C139.1 24.2564 137.979 23.4646 136.751 22.8887C135.522 22.3137 134.217 22.0257 132.835 22.0257C130.807 22.0257 129.241 22.4253 128.135 23.2252C127.029 24.0252 126.476 25.0555 126.476 26.3189C126.507 26.7679 126.622 27.2097 126.822 27.6443C127.022 28.0799 127.336 28.4515 127.767 28.7592C128.289 29.1804 129.019 29.5592 129.955 29.8957C130.892 30.2323 132.005 30.5418 133.295 30.8217C136.121 31.4111 138.179 32.1831 139.469 33.1361C140.789 34.1466 141.451 35.4792 141.451 37.134C141.451 38.9859 140.698 40.4733 139.193 41.5945C137.688 42.7167 135.676 43.2782 133.158 43.2782L133.156 43.279Z" fill="#0B1336"/>
<path d="M49.3656 37.0639C44.4894 36.9208 40.6362 32.8346 40.7802 27.9584C40.9215 23.0794 45.0077 19.2263 49.8839 19.3703C51.1041 19.4045 52.2577 19.6861 53.297 20.164L53.3258 20.1361L56.684 15.2931C54.7088 14.2097 52.4565 13.5654 50.0558 13.4943C41.9365 13.2568 35.1427 19.6672 34.9043 27.7856C34.6667 35.9013 41.0745 42.7005 49.1928 42.9371C51.9004 43.0172 54.4632 42.3567 56.684 41.1383L53.306 36.2648C52.1083 36.8155 50.7711 37.1034 49.3647 37.063" fill="#363392"/>
<path d="M25.3922 13.399L25.3885 13.4082L25.3848 13.399H25.3922Z" fill="#0B1336"/>
<path d="M17.8667 32.6681L17.8649 32.6762L19.9606 32.6681L24.1719 32.7392L26.5303 38.7916L17.0343 38.7313L15.4965 38.7367V38.7376L13.8876 42.8588H7.39073L8.99065 38.761L11.3581 32.6987L18.8916 13.408L18.8952 13.399H25.3848L25.3884 13.408L36.8902 42.8588H30.3933L22.14 21.7261L17.8667 32.6681Z" fill="#0B1336"/>
<path d="M18.8954 13.399L18.8917 13.4082L18.888 13.399H18.8954Z" fill="#0B1336"/>
<path d="M68.4008 42.8606H61.0446L50.8926 28.2175L61.167 13.399H66.7946V14.2646H67.9239L58.2515 28.2175L68.4008 42.8606Z" fill="#D21E3F"/>
<path d="M68.8057 7.39073H67.5981V8.59832H68.8057V7.39073Z" fill="#363392"/>
<path d="M69.2457 11.6884H67.536V13.3981H69.2457V11.6884Z" fill="#363392"/>
<path d="M67.2202 8.97535H64.8842V11.3113H67.2202V8.97535Z" fill="#363392"/>
<path d="M71.4324 9.10583H69.7137V10.8245H71.4324V9.10583Z" fill="#363392"/>
</svg>
